# xmcd
#
# Track frame offsets:
#	150
#	11965
#	29247
#	44296
#	53884
#	66662
#	81916
#	96336
#	110297
#	122030
#	135539
#	154532
#	169663
#	183895
#	197963
#	210915
#	225926
#	240519
#	251449
#	267626
#	282689
#	297978
#	315094
#	330752
#	343277
#
# Disc length: 4715 seconds
#
# Revision: 0
# Processed by: cddbd v1.5.1PL0 Copyright (c) Steve Scherf et al.
# Submitted via: EasyCDDAExtractor 7.5.0.1
#
DISCID=6e126919
DTITLE=George Strait - 50 Number Ones - Disc 2
DYEAR=2004
DGENRE=Country
TTITLE0=Easy Come, Easy Go (Edit)
TTITLE1=I'd Like to Have That One Back (Edit)
TTITLE2=The Man In Love With You (Edit)
TTITLE3=The Big One
TTITLE4=You Can't Make a Heart Love Somebody (Edit)
TTITLE5=Lead On (Edit)
TTITLE6=Check Yes or No (Edit)
TTITLE7=I Know She Still Loves Me (Edit)
TTITLE8=Blue Clear Sky (Edit)
TTITLE9=Carried Away (Edit)
TTITLE10=I Can Still Make Cheyenne (Edit)
TTITLE11=One Night At a Time (Edit)
TTITLE12=Carrying Your Love With Me (Edit)
TTITLE13=Today My World Slipped Away (Edit)
TTITLE14=Round About Way (Edit)
TTITLE15=I Just Want to Dance With You (Edit)
TTITLE16=True (Edit)
TTITLE17=We Really Shouldn't Be Doing This (Edit)
TTITLE18=Write This Down (Edit)
TTITLE19=The Best Day (Edit)
TTITLE20=Go On (Edit)
TTITLE21=Run (Edit)
TTITLE22=Living and Living Well (Edit)
TTITLE23=She'll Leave You With a Smile (Edit)
TTITLE24=Heartland
EXTD=
EXTT0=
EXTT1=
EXTT2=
EXTT3=
EXTT4=
EXTT5=
EXTT6=
EXTT7=
EXTT8=
EXTT9=
EXTT10=
EXTT11=
EXTT12=
EXTT13=
EXTT14=
EXTT15=
EXTT16=
EXTT17=
EXTT18=
EXTT19=
EXTT20=
EXTT21=
EXTT22=
EXTT23=
EXTT24=
PLAYORDER=
